<svg xmlns="http://www.w3.org/2000/svg" xmlns:xlink="http://www.w3.org/1999/xlink" viewBox="0 0 512 512"><defs><style>.cls-1{fill:url(#radial-gradient);}.cls-2{fill:#20265b;}.cls-3{fill:#27aae1;}.cls-4{fill:#009444;}.cls-5{fill:#39b54a;}</style><radialGradient id="radial-gradient" cx="255.67" cy="255.65" r="256" gradientTransform="translate(0.33 0.35)" gradientUnits="userSpaceOnUse"><stop offset="0" stop-color="#f1f2f2"/><stop offset="1" stop-color="#d1d3d4"/></radialGradient></defs><g id="Layer_2" data-name="Layer 2"><g id="Layer_1-2" data-name="Layer 1"><rect class="cls-1" width="512" height="512"/><path class="cls-2" d="M372.77,179.41l-47.63,21.16a87.89,87.89,0,0,1,20.12,56.06c0,49-40,88.67-89.25,88.67-44.56,0-81.5-32.42-88.19-74.82l-47.63,21.16C135.82,351.65,190.71,396,256,396c77.46,0,140.26-62.38,140.26-139.33A137.92,137.92,0,0,0,372.77,179.41Z"/><ellipse class="cls-3" cx="256" cy="256.63" rx="38.26" ry="38"/><polygon class="cls-4" points="268.75 91.96 217.74 117.29 115.73 41.29 166.73 15.96 268.75 91.96"/><polygon class="cls-5" points="166.73 243.96 115.73 269.3 115.73 41.29 166.73 15.96 166.73 243.96"/></g></g></svg>