<svg xmlns="http://www.w3.org/2000/svg" viewBox="0 0 256.13 64"><defs><style>.cls-1{fill:#20265b;}.cls-2{fill:#58b0e3;}.cls-3{fill:#009444;}.cls-4{fill:#39b54a;}.cls-5{fill:#343442;stroke:#343442;stroke-miterlimit:10;stroke-width:0.25px;}.cls-6{fill:#231f20;}</style></defs><g id="Layer_2" data-name="Layer 2"><g id="Layer_1-2" data-name="Layer 1"><path class="cls-1" d="M10.79,26.67h0a16.19,16.19,0,0,1,32.38,0H54A26.83,26.83,0,0,0,27,0,26.83,26.83,0,0,0,0,26.67H10.79Z"/><ellipse class="cls-2" cx="26.98" cy="26.67" rx="6.48" ry="6.4"/><polygon class="cls-3" points="37.67 64 26.98 64 15.91 42.66 26.64 42.66 37.67 64"/><polygon class="cls-3" points="52.66 64 41.98 64 30.91 42.66 41.63 42.66 52.66 64"/><polygon class="cls-4" points="41.98 64 57.25 33.6 68 33.6 52.68 64 41.98 64"/><polygon class="cls-4" points="26.98 64 42.26 33.6 53 33.6 37.68 64 26.98 64"/><path class="cls-5" d="M96.57,11.48a1.63,1.63,0,0,1,1,1.26,1.88,1.88,0,0,1-.46,1.57,1.45,1.45,0,0,1-1.06.61,2.57,2.57,0,0,1-1.31-.24,8.73,8.73,0,0,0-1.59-.53A8.4,8.4,0,0,0,91.36,14a8.28,8.28,0,0,0-3,.52A6.45,6.45,0,0,0,86,16a6.59,6.59,0,0,0-1.44,2.3,8.48,8.48,0,0,0-.49,2.92,8.72,8.72,0,0,0,.56,3.26,6.07,6.07,0,0,0,1.53,2.31,6.16,6.16,0,0,0,2.3,1.37,8.9,8.9,0,0,0,2.87.45,9,9,0,0,0,1.71-.16,5.77,5.77,0,0,0,1.64-.55A2.35,2.35,0,0,1,96,27.66a1.72,1.72,0,0,1,1.09.65,1.85,1.85,0,0,1,.46,1.59,1.65,1.65,0,0,1-1,1.18,10.46,10.46,0,0,1-1.68.66,12.08,12.08,0,0,1-1.76.4,11.92,11.92,0,0,1-1.8.14,13,13,0,0,1-4.3-.71,11.08,11.08,0,0,1-3.64-2.09A9.72,9.72,0,0,1,80.91,26,11.88,11.88,0,0,1,80,21.2a11.16,11.16,0,0,1,.84-4.37,10,10,0,0,1,2.36-3.46,10.82,10.82,0,0,1,3.62-2.28,12.88,12.88,0,0,1,7.26-.51A11.53,11.53,0,0,1,96.57,11.48Z"/><path class="cls-5" d="M112.92,14.13a1.79,1.79,0,0,1,1.35.56,2,2,0,0,1,.54,1.44V30a2,2,0,0,1-.54,1.42,1.77,1.77,0,0,1-1.35.57,1.79,1.79,0,0,1-1.36-.57A2,2,0,0,1,111,30V28.37l.7.3a1.93,1.93,0,0,1-.44,1,6.44,6.44,0,0,1-1.2,1.19,7,7,0,0,1-1.79,1,6,6,0,0,1-2.22.41,7.09,7.09,0,0,1-3.95-1.16,8.1,8.1,0,0,1-2.79-3.21,10.26,10.26,0,0,1-1-4.7,10.33,10.33,0,0,1,1-4.73,8.19,8.19,0,0,1,2.76-3.21,6.81,6.81,0,0,1,3.85-1.16,7.17,7.17,0,0,1,2.5.42,7.6,7.6,0,0,1,2,1.09A5.69,5.69,0,0,1,111.7,17a2.14,2.14,0,0,1,.46,1.13l-1.14.43V16.13a2,2,0,0,1,.54-1.43A1.79,1.79,0,0,1,112.92,14.13ZM106.54,28.7A4.15,4.15,0,0,0,109,28a4.8,4.8,0,0,0,1.63-2,6.4,6.4,0,0,0,.58-2.78,6.51,6.51,0,0,0-.58-2.81,4.8,4.8,0,0,0-1.63-2,4.41,4.41,0,0,0-4.83,0,4.86,4.86,0,0,0-1.62,2,6.51,6.51,0,0,0-.59,2.81,6.41,6.41,0,0,0,.59,2.78,4.86,4.86,0,0,0,1.62,2A4.14,4.14,0,0,0,106.54,28.7Z"/><path class="cls-5" d="M126.87,14.13a4.92,4.92,0,0,1,3.72,1.26,6.3,6.3,0,0,1,1.58,3.26l-.54-.3.26-.52a7.37,7.37,0,0,1,1.17-1.62,7.23,7.23,0,0,1,1.9-1.48,6,6,0,0,1,6,.41,5.23,5.23,0,0,1,1.63,2.71,14.93,14.93,0,0,1,.44,3.74V30a2,2,0,0,1-.54,1.42,1.79,1.79,0,0,1-1.36.57,1.77,1.77,0,0,1-1.35-.57,2,2,0,0,1-.54-1.42V21.59a6.81,6.81,0,0,0-.25-1.94,2.72,2.72,0,0,0-.92-1.4,3,3,0,0,0-1.89-.52,3.9,3.9,0,0,0-2.05.52,3.32,3.32,0,0,0-1.28,1.4,4.23,4.23,0,0,0-.43,1.94V30a2,2,0,0,1-.53,1.42,1.91,1.91,0,0,1-2.72,0A2,2,0,0,1,128.6,30V21.59a6.81,6.81,0,0,0-.25-1.94,2.71,2.71,0,0,0-.91-1.4,3.09,3.09,0,0,0-1.9-.52,3.92,3.92,0,0,0-2.05.52,3.38,3.38,0,0,0-1.28,1.4,4.36,4.36,0,0,0-.43,1.94V30a2,2,0,0,1-.53,1.42,1.91,1.91,0,0,1-2.72,0A2,2,0,0,1,118,30V16.45a2,2,0,0,1,.53-1.42,1.91,1.91,0,0,1,2.72,0,2,2,0,0,1,.53,1.42v1.41l-.47-.1a7.45,7.45,0,0,1,2-2.39,6.66,6.66,0,0,1,1.61-.9A5.26,5.26,0,0,1,126.87,14.13Z"/><path class="cls-5" d="M154.89,14.13a7,7,0,0,1,4,1.16,8.24,8.24,0,0,1,2.78,3.19,10.41,10.41,0,0,1,1,4.72,10.46,10.46,0,0,1-1,4.73,8.33,8.33,0,0,1-2.75,3.21A6.75,6.75,0,0,1,155,32.3a6.36,6.36,0,0,1-2.37-.43,7.11,7.11,0,0,1-1.94-1.08,6,6,0,0,1-1.3-1.32,2.23,2.23,0,0,1-.46-1.13l1-.43v8.61A2,2,0,0,1,149.4,38a1.79,1.79,0,0,1-1.36.57,1.81,1.81,0,0,1-1.36-.55,2,2,0,0,1-.54-1.45V16.45a2,2,0,0,1,.54-1.42,1.91,1.91,0,0,1,2.72,0,2,2,0,0,1,.53,1.42v1.61l-.53-.3a1.86,1.86,0,0,1,.44-1,6.2,6.2,0,0,1,1.2-1.21,6.77,6.77,0,0,1,1.75-1A5.68,5.68,0,0,1,154.89,14.13Zm-.47,3.6a4.2,4.2,0,0,0-2.44.72,4.86,4.86,0,0,0-1.62,1.95,6.43,6.43,0,0,0-.58,2.8,6.59,6.59,0,0,0,.58,2.8A4.82,4.82,0,0,0,152,28a4.2,4.2,0,0,0,2.44.72,4.09,4.09,0,0,0,2.41-.72,4.88,4.88,0,0,0,1.61-2,6.59,6.59,0,0,0,.58-2.8,6.43,6.43,0,0,0-.58-2.8,4.92,4.92,0,0,0-1.61-1.95A4.09,4.09,0,0,0,154.42,17.73Z"/><path class="cls-5" d="M177.39,14.46a1.79,1.79,0,0,1,1.36.57,2,2,0,0,1,.53,1.42v8.32a7.83,7.83,0,0,1-1.86,5.5,8.09,8.09,0,0,1-10.72,0,7.87,7.87,0,0,1-1.84-5.5V16.45a2,2,0,0,1,.53-1.42,1.91,1.91,0,0,1,2.72,0,2,2,0,0,1,.54,1.42v8.32a4.36,4.36,0,0,0,.85,3,3.21,3.21,0,0,0,2.55,1,3.26,3.26,0,0,0,2.59-1,4.36,4.36,0,0,0,.86-3V16.45A2,2,0,0,1,176,15,1.79,1.79,0,0,1,177.39,14.46Z"/><path class="cls-5" d="M181.37,29.26a1.9,1.9,0,0,1-.28-1.18,1.58,1.58,0,0,1,.82-1.25,1.73,1.73,0,0,1,1.07-.28,1.83,1.83,0,0,1,1.11.61A7.57,7.57,0,0,0,186,28.63a5.48,5.48,0,0,0,2.53.53,7.44,7.44,0,0,0,1-.15,2.05,2.05,0,0,0,1-.52,1.71,1.71,0,0,0,.42-1.26,1.48,1.48,0,0,0-.47-1.15,4.11,4.11,0,0,0-1.25-.72c-.52-.2-1.09-.38-1.72-.56s-1.32-.41-2-.65a8,8,0,0,1-1.87-.94,4.34,4.34,0,0,1-1.39-1.52,4.78,4.78,0,0,1-.54-2.39,4.41,4.41,0,0,1,.89-2.78,5.82,5.82,0,0,1,2.28-1.77,7.31,7.31,0,0,1,3-.62,9.44,9.44,0,0,1,2.05.24,8.13,8.13,0,0,1,2,.79,5.1,5.1,0,0,1,1.64,1.42,2.38,2.38,0,0,1,.41,1.18,1.44,1.44,0,0,1-.6,1.25,1.49,1.49,0,0,1-1.1.34,1.6,1.6,0,0,1-1-.44,3.85,3.85,0,0,0-1.44-1.15,4.84,4.84,0,0,0-2.07-.42,5.65,5.65,0,0,0-1,.11,2.1,2.1,0,0,0-1,.49,1.57,1.57,0,0,0-.41,1.2,1.53,1.53,0,0,0,.48,1.19,3.36,3.36,0,0,0,1.27.72c.54.19,1.11.37,1.72.54s1.28.39,1.93.63a7.37,7.37,0,0,1,1.8,1,4.32,4.32,0,0,1,1.32,1.52,4.9,4.9,0,0,1,.51,2.37,4.38,4.38,0,0,1-.95,2.85,6.06,6.06,0,0,1-2.36,1.79,7.43,7.43,0,0,1-2.91.6,10.83,10.83,0,0,1-3.72-.67A6.53,6.53,0,0,1,181.37,29.26Z"/><path class="cls-5" d="M219.49,10.34a2,2,0,0,1,1.31.54,1.82,1.82,0,0,1,.62,1.46,2.37,2.37,0,0,1-.09.61L215.48,30.8a1.48,1.48,0,0,1-.63.85,2,2,0,0,1-1,.32,1.87,1.87,0,0,1-1-.3,2,2,0,0,1-.76-.9l-4.39-10.34.27.19-4.34,10.15a2,2,0,0,1-.75.9,1.9,1.9,0,0,1-1,.3,2,2,0,0,1-.95-.32,1.51,1.51,0,0,1-.65-.85L194.48,13a2.37,2.37,0,0,1-.09-.61,1.8,1.8,0,0,1,.63-1.46,2.05,2.05,0,0,1,1.33-.54,1.92,1.92,0,0,1,1.05.31,1.56,1.56,0,0,1,.67.89l4.71,14.83-.65,0,4.21-10.49A2,2,0,0,1,207,15a1.49,1.49,0,0,1,1-.29,1.52,1.52,0,0,1,1,.29,1.89,1.89,0,0,1,.65.88l3.86,10-.48.31,4.66-14.65a1.53,1.53,0,0,1,.68-.89A2,2,0,0,1,219.49,10.34Z"/><path class="cls-5" d="M229.9,32.3a9,9,0,0,1-4.65-1.16,7.87,7.87,0,0,1-3-3.16,9.45,9.45,0,0,1-1.06-4.52,10.25,10.25,0,0,1,1.15-5,8.3,8.3,0,0,1,3-3.19,7.56,7.56,0,0,1,3.94-1.11,7,7,0,0,1,3,.69,8.31,8.31,0,0,1,2.54,1.88,9.12,9.12,0,0,1,1.75,2.77,8.68,8.68,0,0,1,.65,3.34,1.69,1.69,0,0,1-.6,1.27,2,2,0,0,1-1.33.49H223.28l-.95-3.27h11.58l-.69.65v-.88a3,3,0,0,0-.65-1.7,4.34,4.34,0,0,0-1.45-1.2,4.1,4.1,0,0,0-1.85-.44,5.85,5.85,0,0,0-1.76.26,3.3,3.3,0,0,0-1.42.89,4.26,4.26,0,0,0-1,1.67,8.59,8.59,0,0,0-.35,2.65,5.88,5.88,0,0,0,.71,3,4.91,4.91,0,0,0,1.83,1.87,4.71,4.71,0,0,0,2.39.64,7.17,7.17,0,0,0,1.86-.2A4.38,4.38,0,0,0,232.7,28c.28-.19.54-.35.77-.48a2.43,2.43,0,0,1,1.07-.29,1.51,1.51,0,0,1,1.16.49,1.66,1.66,0,0,1,.46,1.15,2.07,2.07,0,0,1-.89,1.6,7.35,7.35,0,0,1-2.3,1.26A8.9,8.9,0,0,1,229.9,32.3Z"/><path class="cls-5" d="M243.33,30.2a1.64,1.64,0,0,1-.55,1.26,2,2,0,0,1-1.37.51,1.86,1.86,0,0,1-1.33-.51,1.66,1.66,0,0,1-.53-1.26v-18a1.64,1.64,0,0,1,.55-1.27,1.94,1.94,0,0,1,1.37-.51,1.82,1.82,0,0,1,1.34.51,1.69,1.69,0,0,1,.52,1.27Z"/><path class="cls-5" d="M246.75,14.78h7.48a1.66,1.66,0,0,1,1.26.53,1.79,1.79,0,0,1,.51,1.31,1.71,1.71,0,0,1-.51,1.26,1.68,1.68,0,0,1-1.26.51h-7.48a1.68,1.68,0,0,1-1.26-.53,1.79,1.79,0,0,1-.51-1.31,1.74,1.74,0,0,1,1.77-1.77Zm3.38-4.09a1.73,1.73,0,0,1,1.34.57,2,2,0,0,1,.52,1.43V27.26a1.51,1.51,0,0,0,.17.75,1,1,0,0,0,.48.43,1.71,1.71,0,0,0,.65.13,1.58,1.58,0,0,0,.69-.15,1.67,1.67,0,0,1,.73-.15,1.06,1.06,0,0,1,.8.43,1.77,1.77,0,0,1,.36,1.18,1.72,1.72,0,0,1-1,1.5,3.82,3.82,0,0,1-2.07.59,11.32,11.32,0,0,1-1.46-.11,3.84,3.84,0,0,1-1.52-.56,3.32,3.32,0,0,1-1.18-1.36,5.48,5.48,0,0,1-.48-2.52V12.69a2,2,0,0,1,.56-1.43A1.81,1.81,0,0,1,250.13,10.69Z"/><path class="cls-6" d="M84.47,41.38a2.86,2.86,0,0,1,2,.65,2.54,2.54,0,0,1,.67,1.9,2.12,2.12,0,0,1-.33,1.18,2.19,2.19,0,0,1-1,.79,3.94,3.94,0,0,1-1.59.28l.06-.64a5,5,0,0,1,1,.12,3.7,3.7,0,0,1,1.11.43,2.52,2.52,0,0,1,.89.86,2.61,2.61,0,0,1,.35,1.41,3.5,3.5,0,0,1-.31,1.55,2.47,2.47,0,0,1-.81.93,3.05,3.05,0,0,1-1.07.45,5.36,5.36,0,0,1-1.1.12H80.87a.83.83,0,0,1-.62-.25.84.84,0,0,1-.25-.62V42.26a.85.85,0,0,1,.25-.63.83.83,0,0,1,.62-.25Zm-.26,1.69H81.67l.19-.23v2.6l-.17-.13h2.57A1.1,1.1,0,0,0,85,45a1,1,0,0,0,.33-.78,1.16,1.16,0,0,0-.31-.9A1.13,1.13,0,0,0,84.21,43.07ZM84.33,47h-2.6l.13-.12v3l-.15-.15h2.72a1.46,1.46,0,0,0,1-.35,1.33,1.33,0,0,0,.39-1,1.38,1.38,0,0,0-.26-.93,1.13,1.13,0,0,0-.61-.36A3.23,3.23,0,0,0,84.33,47Z"/><path class="cls-6" d="M89.82,42.81a1.17,1.17,0,0,1-.69-.15.69.69,0,0,1-.2-.56v-.27a.64.64,0,0,1,.22-.57,1.22,1.22,0,0,1,.68-.15,1.13,1.13,0,0,1,.7.16.68.68,0,0,1,.2.56v.27a.64.64,0,0,1-.21.56A1.28,1.28,0,0,1,89.82,42.81Zm.87,7.73a.84.84,0,0,1-.25.62.87.87,0,0,1-1.22,0,.84.84,0,0,1-.25-.62V44.62a.81.81,0,0,1,.25-.62.87.87,0,0,1,1.22,0,.81.81,0,0,1,.25.62Z"/><path class="cls-6" d="M94.16,50.54a.89.89,0,0,1-.25.62.84.84,0,0,1-.62.25.79.79,0,0,1-.6-.25.89.89,0,0,1-.25-.62V41.68a.87.87,0,0,1,.25-.62.85.85,0,0,1,.63-.25.77.77,0,0,1,.6.25.86.86,0,0,1,.24.62Z"/><path class="cls-6" d="M102.06,40.81a.82.82,0,0,1,.86.87v8.86a.88.88,0,0,1-.24.62.83.83,0,0,1-.62.25.79.79,0,0,1-.61-.25.84.84,0,0,1-.25-.62v-.71l.32.13a.79.79,0,0,1-.2.45,2.8,2.8,0,0,1-.55.53,2.89,2.89,0,0,1-.8.43,2.79,2.79,0,0,1-1,.18A3.28,3.28,0,0,1,97.17,51a3.5,3.5,0,0,1-1.26-1.4,4.87,4.87,0,0,1,0-4.13,3.69,3.69,0,0,1,1.25-1.4,3.11,3.11,0,0,1,1.74-.51,3.15,3.15,0,0,1,1.13.19,3.26,3.26,0,0,1,.89.47,2.71,2.71,0,0,1,.59.58.93.93,0,0,1,.21.5l-.52.18V41.68a.83.83,0,0,1,.25-.62A.79.79,0,0,1,102.06,40.81ZM99.17,50a1.92,1.92,0,0,0,1.1-.32,2.08,2.08,0,0,0,.74-.86,2.7,2.7,0,0,0,.26-1.22,2.77,2.77,0,0,0-.26-1.23,2.14,2.14,0,0,0-.74-.86,1.92,1.92,0,0,0-1.1-.31,1.9,1.9,0,0,0-1.08.31,2.14,2.14,0,0,0-.74.86,2.91,2.91,0,0,0-.26,1.23,2.84,2.84,0,0,0,.26,1.22,2.08,2.08,0,0,0,.74.86A1.91,1.91,0,0,0,99.17,50Z"/><path class="cls-6" d="M110.53,43.75a.81.81,0,0,1,.62.25.84.84,0,0,1,.24.62v3.64a3.34,3.34,0,0,1-.84,2.4,3.16,3.16,0,0,1-2.43.89,3.12,3.12,0,0,1-2.42-.89,3.34,3.34,0,0,1-.84-2.4V44.62a.84.84,0,0,1,.24-.62.83.83,0,0,1,.62-.25.79.79,0,0,1,.61.25.85.85,0,0,1,.25.62v3.64a1.84,1.84,0,0,0,.38,1.29,1.47,1.47,0,0,0,1.16.43,1.49,1.49,0,0,0,1.17-.43,1.84,1.84,0,0,0,.39-1.29V44.62a.84.84,0,0,1,.24-.62A.79.79,0,0,1,110.53,43.75Z"/><path class="cls-6" d="M117.19,43.6a2.49,2.49,0,0,1,1.61.45,2.23,2.23,0,0,1,.76,1.18,6.41,6.41,0,0,1,.2,1.64v3.67a.88.88,0,0,1-.24.62.88.88,0,0,1-1.23,0,.88.88,0,0,1-.24-.62V46.87a2.77,2.77,0,0,0-.12-.85,1.14,1.14,0,0,0-.44-.61,1.46,1.46,0,0,0-.9-.23,1.8,1.8,0,0,0-1,.23,1.41,1.41,0,0,0-.6.61,1.7,1.7,0,0,0-.21.85v3.67a.88.88,0,0,1-.24.62.81.81,0,0,1-.62.25.79.79,0,0,1-.61-.25.88.88,0,0,1-.24-.62V44.62a.84.84,0,0,1,.24-.62.79.79,0,0,1,.61-.25.81.81,0,0,1,.62.25.84.84,0,0,1,.24.62v.62l-.22-.05a2.94,2.94,0,0,1,.38-.52,3.18,3.18,0,0,1,.57-.52,2.67,2.67,0,0,1,1.64-.55Z"/><path class="cls-6" d="M124.58,43.6a3,3,0,0,1,1.1.19,3.08,3.08,0,0,1,.86.47,2.58,2.58,0,0,1,.57.58.93.93,0,0,1,.21.5l-.37.18v-1a.88.88,0,0,1,.24-.63.85.85,0,0,1,.62-.25.79.79,0,0,1,.61.25.86.86,0,0,1,.25.63v6.37a3.36,3.36,0,0,1-.54,2,3.11,3.11,0,0,1-1.41,1.09,5.22,5.22,0,0,1-1.87.34,4.82,4.82,0,0,1-.74-.08,7.06,7.06,0,0,1-.87-.17l-.63-.18a1.24,1.24,0,0,1-.6-.47.68.68,0,0,1-.06-.59.91.91,0,0,1,.41-.57.74.74,0,0,1,.6,0l.47.18c.22.08.47.16.73.23a2.72,2.72,0,0,0,.69.11,2.45,2.45,0,0,0,1.59-.43,1.47,1.47,0,0,0,.51-1.19V49.83l.17.13a.77.77,0,0,1-.19.45,2.65,2.65,0,0,1-.53.53,3,3,0,0,1-.79.43,2.67,2.67,0,0,1-1,.18,3.35,3.35,0,0,1-1.82-.51,3.43,3.43,0,0,1-1.29-1.4,4.77,4.77,0,0,1,0-4.13,3.66,3.66,0,0,1,1.27-1.4A3.28,3.28,0,0,1,124.58,43.6Zm.27,1.58a2,2,0,0,0-1.13.31,2.19,2.19,0,0,0-.76.86,2.77,2.77,0,0,0-.27,1.23A2.7,2.7,0,0,0,123,48.8a2.12,2.12,0,0,0,.76.86,2.17,2.17,0,0,0,2.27,0,2.05,2.05,0,0,0,.76-.86,2.7,2.7,0,0,0,.27-1.22,2.77,2.77,0,0,0-.27-1.23,2.11,2.11,0,0,0-.76-.86A2,2,0,0,0,124.85,45.18Z"/><path class="cls-6" d="M129.79,50.22a.81.81,0,0,1-.12-.51.67.67,0,0,1,.37-.55.75.75,0,0,1,.48-.12.79.79,0,0,1,.5.26,3.4,3.4,0,0,0,.87.65,2.62,2.62,0,0,0,1.15.23,3,3,0,0,0,.47-.07.88.88,0,0,0,.45-.23.69.69,0,0,0,.19-.55.64.64,0,0,0-.21-.5,1.8,1.8,0,0,0-.57-.31,8,8,0,0,0-.78-.25c-.29-.08-.59-.18-.9-.28a4.19,4.19,0,0,1-.85-.41,1.93,1.93,0,0,1-.63-.67,2.05,2.05,0,0,1-.24-1,1.87,1.87,0,0,1,.4-1.22,2.61,2.61,0,0,1,1-.78,3.38,3.38,0,0,1,1.34-.27,4.52,4.52,0,0,1,.93.11,3.77,3.77,0,0,1,.92.34,2.3,2.3,0,0,1,.75.63,1,1,0,0,1,.18.51.63.63,0,0,1-.27.55.73.73,0,0,1-.5.15.75.75,0,0,1-.47-.2,1.74,1.74,0,0,0-.65-.5,2.28,2.28,0,0,0-.94-.18,2,2,0,0,0-.46.05.9.9,0,0,0-.44.21.68.68,0,0,0-.18.52.69.69,0,0,0,.21.53,1.68,1.68,0,0,0,.58.31l.78.24.87.27a3.34,3.34,0,0,1,.82.42,1.87,1.87,0,0,1,.82,1.7,1.93,1.93,0,0,1-.42,1.25,2.83,2.83,0,0,1-1.08.78,3.29,3.29,0,0,1-1.31.26,5,5,0,0,1-1.69-.29A2.93,2.93,0,0,1,129.79,50.22Z"/><path class="cls-6" d="M143.28,43.6a.83.83,0,0,1,.62.25.85.85,0,0,1,.24.63v6.06a.88.88,0,0,1-.24.62.83.83,0,0,1-.62.25.79.79,0,0,1-.61-.25.89.89,0,0,1-.25-.62v-.71l.32.13a.79.79,0,0,1-.2.45,2.54,2.54,0,0,1-.55.53,2.89,2.89,0,0,1-.8.43,2.79,2.79,0,0,1-1,.18,3.28,3.28,0,0,1-1.79-.51,3.5,3.5,0,0,1-1.26-1.4,4.87,4.87,0,0,1,0-4.13,3.69,3.69,0,0,1,1.25-1.4,3.31,3.31,0,0,1,2.87-.32,3.33,3.33,0,0,1,.9.47,2.88,2.88,0,0,1,.58.58.93.93,0,0,1,.21.5l-.52.18v-1a.89.89,0,0,1,.25-.63A.83.83,0,0,1,143.28,43.6ZM140.4,50a2,2,0,0,0,1.1-.32,2.13,2.13,0,0,0,.73-.86,2.7,2.7,0,0,0,.27-1.22,2.77,2.77,0,0,0-.27-1.23,2.2,2.2,0,0,0-.73-.86,2,2,0,0,0-1.1-.31,1.91,1.91,0,0,0-1.09.31,2.14,2.14,0,0,0-.74.86,2.91,2.91,0,0,0-.26,1.23,2.84,2.84,0,0,0,.26,1.22,2.08,2.08,0,0,0,.74.86A1.92,1.92,0,0,0,140.4,50Z"/><path class="cls-6" d="M146.85,51.41a.81.81,0,0,1-.61-.25.88.88,0,0,1-.24-.62V41.68a.86.86,0,0,1,.24-.62.88.88,0,0,1,1.23,0,.86.86,0,0,1,.24.62v8.86a.88.88,0,0,1-.24.62A.81.81,0,0,1,146.85,51.41Zm4.55-7.66A.74.74,0,0,1,152,44a.82.82,0,0,1,.24.53.84.84,0,0,1-.34.64l-4.3,4-.07-2L150.77,44A.86.86,0,0,1,151.4,43.75Zm.21,7.65a.82.82,0,0,1-.63-.29l-2.64-2.81,1.3-1.2,2.57,2.81a.9.9,0,0,1,.27.64.73.73,0,0,1-.29.61A.91.91,0,0,1,151.61,51.4Z"/><path class="cls-6" d="M160,43.6a.79.79,0,0,1,.61.25.82.82,0,0,1,.25.63v6.06a.84.84,0,0,1-.25.62.79.79,0,0,1-.61.25.83.83,0,0,1-.62-.25.88.88,0,0,1-.24-.62v-.71l.32.13a.79.79,0,0,1-.2.45,2.8,2.8,0,0,1-.55.53,3,3,0,0,1-.8.43,2.79,2.79,0,0,1-1,.18,3.28,3.28,0,0,1-1.79-.51,3.5,3.5,0,0,1-1.26-1.4,4.77,4.77,0,0,1,0-4.13,3.61,3.61,0,0,1,1.25-1.4,3.11,3.11,0,0,1,1.74-.51,3.15,3.15,0,0,1,1.13.19,3.26,3.26,0,0,1,.89.47,2.71,2.71,0,0,1,.59.58.93.93,0,0,1,.21.5l-.52.18v-1a.88.88,0,0,1,.24-.63A.87.87,0,0,1,160,43.6ZM157.08,50a1.92,1.92,0,0,0,1.1-.32,2.08,2.08,0,0,0,.74-.86,2.7,2.7,0,0,0,.26-1.22,2.77,2.77,0,0,0-.26-1.23,2.14,2.14,0,0,0-.74-.86,1.92,1.92,0,0,0-1.1-.31,1.88,1.88,0,0,0-1.08.31,2.14,2.14,0,0,0-.74.86,2.91,2.91,0,0,0-.26,1.23,2.84,2.84,0,0,0,.26,1.22,2.08,2.08,0,0,0,.74.86A1.88,1.88,0,0,0,157.08,50Z"/><path class="cls-6" d="M168.73,40.81a.82.82,0,0,1,.61.24.86.86,0,0,1,.25.63v8.86a.89.89,0,0,1-.25.62.79.79,0,0,1-.61.25.83.83,0,0,1-.62-.25.88.88,0,0,1-.24-.62v-.71l.32.13a.79.79,0,0,1-.2.45,2.8,2.8,0,0,1-.55.53,3.11,3.11,0,0,1-.81.43,2.7,2.7,0,0,1-1,.18,3.28,3.28,0,0,1-1.79-.51,3.5,3.5,0,0,1-1.26-1.4,4.77,4.77,0,0,1,0-4.13,3.61,3.61,0,0,1,1.25-1.4,3.11,3.11,0,0,1,1.74-.51,3.15,3.15,0,0,1,1.13.19,3.26,3.26,0,0,1,.89.47,3,3,0,0,1,.59.58.93.93,0,0,1,.21.5l-.52.18V41.68a.86.86,0,0,1,.24-.62A.83.83,0,0,1,168.73,40.81ZM165.84,50a1.92,1.92,0,0,0,1.1-.32,2.08,2.08,0,0,0,.74-.86,2.84,2.84,0,0,0,.26-1.22,2.91,2.91,0,0,0-.26-1.23,2.14,2.14,0,0,0-.74-.86,1.92,1.92,0,0,0-1.1-.31,1.88,1.88,0,0,0-1.08.31,2.14,2.14,0,0,0-.74.86,2.77,2.77,0,0,0-.26,1.23A2.7,2.7,0,0,0,164,48.8a2.08,2.08,0,0,0,.74.86A1.88,1.88,0,0,0,165.84,50Z"/><path class="cls-6" d="M174.83,51.55a4.2,4.2,0,0,1-2.11-.51,3.5,3.5,0,0,1-1.37-1.38,4,4,0,0,1-.48-2,4.3,4.3,0,0,1,.52-2.19,3.62,3.62,0,0,1,1.37-1.4,3.44,3.44,0,0,1,1.78-.49,3.23,3.23,0,0,1,1.38.3,3.64,3.64,0,0,1,1.15.83,4,4,0,0,1,.8,1.21,3.77,3.77,0,0,1,.29,1.46.75.75,0,0,1-.27.56.91.91,0,0,1-.6.21h-5.46l-.43-1.43h5.24l-.31.29v-.39a1.36,1.36,0,0,0-.29-.75,2.12,2.12,0,0,0-.66-.52,1.85,1.85,0,0,0-.84-.19,3,3,0,0,0-.8.11,1.63,1.63,0,0,0-.64.39,1.91,1.91,0,0,0-.43.73,3.77,3.77,0,0,0-.16,1.16,2.45,2.45,0,0,0,.33,1.31,2.18,2.18,0,0,0,.83.82,2.22,2.22,0,0,0,1.07.28,3.19,3.19,0,0,0,.85-.09,1.56,1.56,0,0,0,.5-.21l.35-.2a1.09,1.09,0,0,1,.49-.13.72.72,0,0,1,.73.71.92.92,0,0,1-.4.71,3.41,3.41,0,0,1-1,.55A4.25,4.25,0,0,1,174.83,51.55Z"/><path class="cls-6" d="M183.46,43.6a2.29,2.29,0,0,1,1.68.55,2.75,2.75,0,0,1,.72,1.43l-.24-.13.11-.23a3.34,3.34,0,0,1,.53-.71,3.27,3.27,0,0,1,.86-.64,2.77,2.77,0,0,1,2.71.18,2.25,2.25,0,0,1,.73,1.18,6.41,6.41,0,0,1,.2,1.64v3.67a.88.88,0,0,1-.24.62.88.88,0,0,1-1.23,0,.88.88,0,0,1-.24-.62V46.87a2.77,2.77,0,0,0-.12-.85,1.1,1.1,0,0,0-.41-.61,1.35,1.35,0,0,0-.86-.23,1.74,1.74,0,0,0-.93.23,1.42,1.42,0,0,0-.58.61,1.8,1.8,0,0,0-.19.85v3.67a.88.88,0,0,1-.24.62.83.83,0,0,1-.62.25.79.79,0,0,1-.61-.25.89.89,0,0,1-.25-.62V46.87a2.78,2.78,0,0,0-.11-.85,1.15,1.15,0,0,0-.41-.61,1.35,1.35,0,0,0-.86-.23,1.74,1.74,0,0,0-.93.23,1.42,1.42,0,0,0-.58.61,1.8,1.8,0,0,0-.19.85v3.67a.88.88,0,0,1-.24.62.83.83,0,0,1-.62.25.79.79,0,0,1-.61-.25.89.89,0,0,1-.25-.62V44.62a.85.85,0,0,1,.25-.62.79.79,0,0,1,.61-.25.83.83,0,0,1,.62.25.84.84,0,0,1,.24.62v.62l-.22-.05a4.12,4.12,0,0,1,.36-.52,2.81,2.81,0,0,1,.56-.52,2.72,2.72,0,0,1,.73-.4A2.45,2.45,0,0,1,183.46,43.6Z"/><path class="cls-6" d="M193.22,42.81a1.19,1.19,0,0,1-.69-.15.69.69,0,0,1-.2-.56v-.27a.66.66,0,0,1,.22-.57,1.25,1.25,0,0,1,.68-.15,1.11,1.11,0,0,1,.7.16.65.65,0,0,1,.2.56v.27a.64.64,0,0,1-.21.56A1.25,1.25,0,0,1,193.22,42.81Zm.87,7.73a.88.88,0,0,1-.24.62.83.83,0,0,1-.62.25.79.79,0,0,1-.61-.25.89.89,0,0,1-.25-.62V44.62a.85.85,0,0,1,.25-.62.79.79,0,0,1,.61-.25.83.83,0,0,1,.62.25.84.84,0,0,1,.24.62Z"/><path class="cls-6" d="M199.23,51.55a4.14,4.14,0,0,1-2.1-.51,3.46,3.46,0,0,1-1.38-1.38,4,4,0,0,1-.47-2,4.3,4.3,0,0,1,.52-2.19,3.59,3.59,0,0,1,1.36-1.4A3.47,3.47,0,0,1,199,43.6a3.3,3.3,0,0,1,1.38.3,3.88,3.88,0,0,1,1.15.83,4.15,4.15,0,0,1,.79,1.21,3.77,3.77,0,0,1,.29,1.46.75.75,0,0,1-.27.56.91.91,0,0,1-.6.21h-5.46l-.43-1.43h5.25l-.32.29v-.39a1.29,1.29,0,0,0-.29-.75,2.12,2.12,0,0,0-.66-.52,1.84,1.84,0,0,0-.83-.19,2.86,2.86,0,0,0-.8.11,1.6,1.6,0,0,0-.65.39,1.78,1.78,0,0,0-.42.73,3.49,3.49,0,0,0-.16,1.16,2.54,2.54,0,0,0,.32,1.31,2.18,2.18,0,0,0,.83.82,2.29,2.29,0,0,0,1.08.28,3.16,3.16,0,0,0,.84-.09,1.74,1.74,0,0,0,.51-.21,3.35,3.35,0,0,1,.35-.2,1,1,0,0,1,.48-.13.69.69,0,0,1,.52.21.7.7,0,0,1,.21.5.9.9,0,0,1-.4.71,3.34,3.34,0,0,1-1,.55A4.36,4.36,0,0,1,199.23,51.55Z"/><path class="cls-6" d="M214.85,41.87a.77.77,0,0,1,.44.59.91.91,0,0,1-.21.73.64.64,0,0,1-.48.28,1.13,1.13,0,0,1-.59-.11,3.61,3.61,0,0,0-.72-.25,4.17,4.17,0,0,0-.8-.08,3.77,3.77,0,0,0-1.38.24,3,3,0,0,0-1,.7,3,3,0,0,0-.65,1.06,4,4,0,0,0-.22,1.37,4.08,4.08,0,0,0,.25,1.51,2.87,2.87,0,0,0,.69,1.08,2.72,2.72,0,0,0,1,.64,4.3,4.3,0,0,0,2.07.13,2.57,2.57,0,0,0,.75-.26,1.12,1.12,0,0,1,.59-.1.71.71,0,0,1,.49.31.86.86,0,0,1,.21.73.73.73,0,0,1-.44.55,4.18,4.18,0,0,1-.76.31,5.67,5.67,0,0,1-.79.19,5.55,5.55,0,0,1-.82.06,5.79,5.79,0,0,1-2-.33,5,5,0,0,1-1.64-1,4.61,4.61,0,0,1-1.14-1.61,5.77,5.77,0,0,1-.41-2.24,5.41,5.41,0,0,1,.38-2,4.68,4.68,0,0,1,1.07-1.61,4.93,4.93,0,0,1,1.64-1.06,5.46,5.46,0,0,1,2.05-.38,5.59,5.59,0,0,1,1.23.14A5.26,5.26,0,0,1,214.85,41.87Z"/><path class="cls-6" d="M223.87,47.58a4.14,4.14,0,0,1-.52,2.08,3.76,3.76,0,0,1-1.41,1.39,3.91,3.91,0,0,1-5.33-1.39,4.4,4.4,0,0,1,0-4.15,3.91,3.91,0,0,1,1.4-1.4,3.92,3.92,0,0,1,5.34,1.4A4.13,4.13,0,0,1,223.87,47.58Zm-1.72,0a2.66,2.66,0,0,0-.29-1.26,2.21,2.21,0,0,0-.79-.84,2.05,2.05,0,0,0-1.09-.3,2,2,0,0,0-1.09.3,2.21,2.21,0,0,0-.79.84,2.88,2.88,0,0,0,0,2.52,2.21,2.21,0,0,0,.79.84A2,2,0,0,0,220,50a2.05,2.05,0,0,0,1.09-.3,2.21,2.21,0,0,0,.79-.84A2.66,2.66,0,0,0,222.15,47.58Z"/><path class="cls-6" d="M227,50.54a.85.85,0,0,1-.87.87.79.79,0,0,1-.6-.25.89.89,0,0,1-.25-.62V41.68a.87.87,0,0,1,.25-.62.85.85,0,0,1,.63-.25.77.77,0,0,1,.6.25.86.86,0,0,1,.24.62Z"/><path class="cls-6" d="M236.07,47.58a4.14,4.14,0,0,1-.52,2.08,3.81,3.81,0,0,1-1.4,1.39,4.11,4.11,0,0,1-3.93,0,3.66,3.66,0,0,1-1.4-1.39,4.4,4.4,0,0,1,0-4.15,3.76,3.76,0,0,1,1.4-1.4,4,4,0,0,1,3.93,0,3.91,3.91,0,0,1,1.4,1.4A4.13,4.13,0,0,1,236.07,47.58Zm-1.72,0a2.55,2.55,0,0,0-.29-1.26,2.13,2.13,0,0,0-.79-.84,2,2,0,0,0-1.09-.3,2.05,2.05,0,0,0-1.09.3,2.21,2.21,0,0,0-.79.84,2.88,2.88,0,0,0,0,2.52,2.21,2.21,0,0,0,.79.84,2.05,2.05,0,0,0,1.09.3,2,2,0,0,0,1.09-.3,2.13,2.13,0,0,0,.79-.84A2.55,2.55,0,0,0,234.35,47.58Z"/><path class="cls-6" d="M241.44,43.6a2.49,2.49,0,0,1,1.61.45,2.22,2.22,0,0,1,.75,1.18,6,6,0,0,1,.21,1.64v3.67a.88.88,0,0,1-.24.62.88.88,0,0,1-1.23,0,.88.88,0,0,1-.24-.62V46.87a2.77,2.77,0,0,0-.12-.85,1.14,1.14,0,0,0-.44-.61,1.46,1.46,0,0,0-.9-.23,1.8,1.8,0,0,0-1,.23,1.41,1.41,0,0,0-.6.61,1.7,1.7,0,0,0-.21.85v3.67a.88.88,0,0,1-.24.62.83.83,0,0,1-.62.25.79.79,0,0,1-.61-.25.89.89,0,0,1-.25-.62V44.62a.85.85,0,0,1,.25-.62.79.79,0,0,1,.61-.25.83.83,0,0,1,.62.25.84.84,0,0,1,.24.62v.62l-.22-.05a2.94,2.94,0,0,1,.38-.52,3.18,3.18,0,0,1,.57-.52,2.67,2.67,0,0,1,1.64-.55Z"/><path class="cls-6" d="M246.47,42.81a1.22,1.22,0,0,1-.69-.15.69.69,0,0,1-.2-.56v-.27a.64.64,0,0,1,.23-.57,1.19,1.19,0,0,1,.67-.15,1.11,1.11,0,0,1,.7.16.65.65,0,0,1,.2.56v.27a.64.64,0,0,1-.21.56A1.25,1.25,0,0,1,246.47,42.81Zm.87,7.73a.88.88,0,0,1-.24.62.88.88,0,0,1-1.23,0,.88.88,0,0,1-.24-.62V44.62a.84.84,0,0,1,.24-.62.88.88,0,0,1,1.23,0,.84.84,0,0,1,.24.62Z"/><path class="cls-6" d="M255.14,43.6a.81.81,0,0,1,.62.25.85.85,0,0,1,.24.63v6.06a.88.88,0,0,1-.24.62.81.81,0,0,1-.62.25.79.79,0,0,1-.61-.25.88.88,0,0,1-.24-.62v-.71l.31.13a.79.79,0,0,1-.2.45,2.48,2.48,0,0,1-.54.53,3.11,3.11,0,0,1-.81.43,2.79,2.79,0,0,1-1,.18,3.24,3.24,0,0,1-1.78-.51,3.45,3.45,0,0,1-1.27-1.4,4.87,4.87,0,0,1,0-4.13,3.69,3.69,0,0,1,1.25-1.4,3.31,3.31,0,0,1,2.87-.32,3.33,3.33,0,0,1,.9.47,2.88,2.88,0,0,1,.58.58.93.93,0,0,1,.21.5l-.51.18v-1a.88.88,0,0,1,.24-.63A.83.83,0,0,1,255.14,43.6ZM252.26,50a2,2,0,0,0,1.1-.32,2.06,2.06,0,0,0,.73-.86,2.7,2.7,0,0,0,.27-1.22,2.77,2.77,0,0,0-.27-1.23,2.12,2.12,0,0,0-.73-.86,2.09,2.09,0,0,0-2.19,0,2.22,2.22,0,0,0-.74.86,2.91,2.91,0,0,0-.26,1.23,2.84,2.84,0,0,0,.26,1.22,2.15,2.15,0,0,0,.74.86A1.94,1.94,0,0,0,252.26,50Z"/></g></g></svg>